# xmcd
#
# Track frame offsets: 
#        150
#        19512
#        43130
#        69214
#        92489
#        114811
#        143232
#        165710
#        188022
#        205807
#
# Disc length: 3094 seconds
#
# Revision: 0
# Processed by: cddbd v1.5.2PL0 Copyright (c) Steve Scherf et al.
# Submitted via: ExactAudioCopy v1.0b3
#
DISCID=780c140a
DTITLE=Thanh Tuyen, Tuan Vu, Phuong Mai - Loi Ve Dat Me
DYEAR=1991
DGENRE=
TTITLE0=Thanh Tuyen - Loi ve dat Me
TTITLE1=Tuan Vu - Han tinh
TTITLE2=Phuong Mai - Mot chuyen xe hoa
TTITLE3=Thanh Tuyen - Hoa thuong nho ai
TTITLE4=Tuan Vu - Nua dem bien gioi
TTITLE5=Phuong Mai - Neu hai dua minh
TTITLE6=Thanh Tuyen - Xa vang
TTITLE7=Tuan Vu - Nghen ngao
TTITLE8=Phuong Mai - Ai cho toi tinh yeu
TTITLE9=Thanh Tuyen - Vong gac dem suong
EXTD=
EXTT0=
EXTT1=
EXTT2=
EXTT3=
EXTT4=
EXTT5=
EXTT6=
EXTT7=
EXTT8=
EXTT9=
PLAYORDER=
